<svg xmlns="http://www.w3.org/2000/svg" viewBox="0 0 890.96 304.76"><defs><style>.cls-1{fill:#d6b35a;}.cls-2{fill:#fff;}.cls-3{fill:#1d1d1b;}</style></defs><g id="Camada_2" data-name="Camada 2"><g id="Camada_1-2" data-name="Camada 1"><g id="logo_horiz_i_amarelo" data-name="logo horiz i amarelo"><g id="logo_IA" data-name="logo IA"><rect class="cls-1" width="320" height="304.76" rx="40"/><g id="ia_back" data-name="ia back"><path class="cls-2" d="M145.74,90.13c-2.41-11.22-7-21.79-11.82-32.17-2.66-5.64-7.38-8.45-13.61-9.07-8.18-.8-16.33-.38-24.51-.64H73.73c-8.07,0-13.56,3.85-16,11.48C54.48,69.84,52,80.24,48.46,90.22c-6.26,17.66-.1,31.43,12.53,43.4,15.75,14.94,41.66,18.84,59.14,9.09C140.59,131.28,150.4,111.65,145.74,90.13Zm-31.35,49c-19.43,9.08-43.58,1.56-56-17.38-3.54-5.41-5.93-11.35-5.72-17.69.48-13.79,4.46-26.86,10.18-39.32,2.17-4.75,6.66-7,11.83-7.87,7.59-1.31,15.23-1.2,22.87-1.23,30.61,0,31.64.77,40.51,30C145.85,111.16,138.49,127.8,114.39,139.1Z"/><path class="cls-2" d="M132.38,110.36C129.84,125.51,115,136,101.55,137.41c-16.28,1.67-30.69-5-37.33-18-1.23-2.4-3-4.94-1.46-7.66,1.64-2.9,4.77-2.13,7.39-1.88a38.55,38.55,0,0,1,8,1.42C104.75,119.69,107.39,119.69,132.38,110.36Z"/><path class="cls-2" d="M103.38,162.46v81.23q0,4.73,1.26,7.08a9.71,9.71,0,0,0,2.86,3.49,5.8,5.8,0,0,0,3.88,1.35v.9l-5.71-.45c-1.53-.15-3.09-.26-4.69-.34s-2.86-.11-3.77-.11-2.17,0-3.77.11-3.24.19-4.92.34-3.8.3-5.94.45v-.9a7.7,7.7,0,0,0,4.12-1.12,11.09,11.09,0,0,0,2.62-3.6,15.66,15.66,0,0,0,1.26-7V162.24c0-3.16-.42-5.52-1.26-7.1a11.46,11.46,0,0,0-2.62-3.48,6.76,6.76,0,0,0-4.12-1.35v-.67c2.14.15,4.12.29,5.94.45s3.32.25,4.92.33,2.86.12,3.77.12,2.17,0,3.77-.12,3.16-.18,4.69-.33c1.83-.16,3.73-.3,5.71-.45v.67a5.8,5.8,0,0,0-3.88,1.35,9.58,9.58,0,0,0-2.86,3.6A16.3,16.3,0,0,0,103.38,162.46Z"/><path class="cls-2" d="M259.15,241.66a29.57,29.57,0,0,0,4.8,7.65,22.44,22.44,0,0,0,4.8,4.05,14.2,14.2,0,0,0,5.26,2v1.12l-3.2-.22c-.91-.15-2-.26-3.2-.34s-2.51-.19-3.88-.34c-1.83-.15-3.63-.26-5.38-.34s-3.16-.11-4.22-.11-2.4,0-4,.11-3.24.19-4.92.34c-1.22.15-2.48.27-3.77.34s-2.4.19-3.31.34a23.09,23.09,0,0,0-3.21.22v-1.12a13.64,13.64,0,0,0,6.86-2,8.21,8.21,0,0,0,3.43-4.39q1.14-3-1.37-8.43-2.29-5.4-4.23-10L235,219.72q-2.62-6.18-5.6-13.39H159L145.1,239.41q-2.29,5.18-.35,8.21a14.33,14.33,0,0,0,5.15,4.84,28.23,28.23,0,0,0,9.14,2.93v1.12q-3.66-.22-7.09-.67l-6.06-.45c-2-.15-3.84-.23-5.37-.23h-1.37c-.61,0-1.33,0-2.17.11s-1.79.12-2.86.12q-2.28.23-4.68.33c-1.6.08-3.17.19-4.69.34l-4.8.45v-1.12a24.17,24.17,0,0,0,7.32-2.7,31.31,31.31,0,0,0,6.28-5.29,30.94,30.94,0,0,0,5.83-9.56q3.44-7.65,7.66-17.55T156,199.47q4.68-10.9,9.49-22.27t9.37-22.06q4.58-10.68,8.46-19.91t6.85-16l5.72-13.05h5.49q11.88,27.9,22.85,53.55l9.49,22.39q4.91,11.58,9.6,22.38t8.8,20.37Q256.18,234.47,259.15,241.66Zm-32-40.5q-5.25-12.82-11.08-26.55t-10.86-25.2q-5.49-13.28-11-26.1L161.1,201.16Z"/></g></g><path class="cls-3" d="M392.43,52.71a41.38,41.38,0,0,1,15.06,2.66,35.35,35.35,0,0,1,11.94,7.47,34,34,0,0,1,7.86,11.54,38.08,38.08,0,0,1,2.83,14.9A38.52,38.52,0,0,1,428.61,100a37.29,37.29,0,0,1-4.39,9.77,34.92,34.92,0,0,1-7.06,8,32.43,32.43,0,0,1-9.45,5.49c1,1.82,2,3.69,3.05,5.59a57.54,57.54,0,0,0,3.57,5.62,41.84,41.84,0,0,0,4.52,5.29,33.1,33.1,0,0,0,5.86,4.64,41.14,41.14,0,0,0,7.61,3.71,48.75,48.75,0,0,0,9.82,2.45L442,151c-.07.13-.13.27-.2.41s-.13.32-.19.52a54.08,54.08,0,0,1-21.85-5.16,53.07,53.07,0,0,1-8.33-4.9,68.85,68.85,0,0,1-6.76-5.59,63.52,63.52,0,0,1-5.3-5.67q-2.3-2.81-3.95-5.15a42.8,42.8,0,0,1-15.19-2.61,35.21,35.21,0,0,1-12-7.4,33.61,33.61,0,0,1-7.89-11.5A38,38,0,0,1,357.52,89a39,39,0,0,1,1.07-9.13,38.52,38.52,0,0,1,3.15-8.54,36.06,36.06,0,0,1,5.08-7.45A32.73,32.73,0,0,1,382.3,54.1,35.53,35.53,0,0,1,392.43,52.71ZM395.21,121a24.42,24.42,0,0,0,9.91-2,21.55,21.55,0,0,0,7.74-5.66,26.34,26.34,0,0,0,5.06-9.06,37.91,37.91,0,0,0,1.8-12.13A53.12,53.12,0,0,0,418,78.27a33.92,33.92,0,0,0-5.15-11.14,24.35,24.35,0,0,0-8.52-7.37,25.42,25.42,0,0,0-11.89-2.66A24.78,24.78,0,0,0,382.52,59a21.48,21.48,0,0,0-7.74,5.59,26,26,0,0,0-5.06,9,37.74,37.74,0,0,0-1.8,12.11,54.38,54.38,0,0,0,1.71,13.94,33.57,33.57,0,0,0,5.12,11.21,24.6,24.6,0,0,0,8.55,7.45A25.21,25.21,0,0,0,395.21,121Z"/><path class="cls-3" d="M449.85,106.81q0,6.43,2.57,9.47a8.56,8.56,0,0,0,6.9,3,11.09,11.09,0,0,0,3.52-.66,28.07,28.07,0,0,0,4-1.76,39.84,39.84,0,0,0,4.15-2.56,35,35,0,0,0,3.83-3.13c.07-.94.1-1.94.1-3V93q0-4.15-.12-7.25c-.08-2.07-.18-3.85-.3-5.35a37.45,37.45,0,0,0-.44-3.76,22.81,22.81,0,0,0-.56-2.54V73.9h11.28v.19a23.52,23.52,0,0,0-.53,2.54c-.17,1-.31,2.26-.44,3.76s-.23,3.28-.3,5.35-.09,4.48-.09,7.25V104.8q0,4.15.09,7.26c.07,2.06.17,3.85.3,5.34s.27,2.75.44,3.76a23,23,0,0,0,.53,2.54v.2H473.53v-.2c.2-.81.4-1.85.61-3.12a45.06,45.06,0,0,0,.47-5q-2,1.71-4.32,3.37a42.12,42.12,0,0,1-4.84,3,30.8,30.8,0,0,1-5.08,2.13,16.94,16.94,0,0,1-5.05.8,14.43,14.43,0,0,1-6.47-1.32,12.46,12.46,0,0,1-4.35-3.46,13.91,13.91,0,0,1-2.44-4.88,21.21,21.21,0,0,1-.75-5.62V93c0-2.77,0-5.19-.1-7.25s-.16-3.85-.29-5.35-.28-2.75-.44-3.76a25.91,25.91,0,0,0-.54-2.54V73.9h11.28v.19a21.13,21.13,0,0,0-.54,2.54c-.16,1-.31,2.26-.44,3.76s-.23,3.28-.29,5.35-.1,4.48-.1,7.25Z"/><path class="cls-3" d="M494.53,109.49a13.46,13.46,0,0,1,1.59-6.69A15.46,15.46,0,0,1,500.34,98a23,23,0,0,1,6-3.25,44.68,44.68,0,0,1,7-2,61.9,61.9,0,0,1,7.13-1c2.34-.18,4.49-.28,6.44-.32V89a16.78,16.78,0,0,0-.83-5.56,10.28,10.28,0,0,0-2.34-3.88,9.51,9.51,0,0,0-3.64-2.3,13.93,13.93,0,0,0-4.66-.76,20.07,20.07,0,0,0-3.47.3,19.58,19.58,0,0,0-3.54,1,26.39,26.39,0,0,0-3.86,1.86,40.21,40.21,0,0,0-4.37,3l-.48-.29L503,75.41a24.3,24.3,0,0,1,3.17-1.2,31.06,31.06,0,0,1,3.17-.75,29.75,29.75,0,0,1,3.3-.42q1.68-.12,3.54-.12A27.14,27.14,0,0,1,525,74.17a16.26,16.26,0,0,1,6,3.41,13,13,0,0,1,3.39,5.08,17.73,17.73,0,0,1,1.08,6.23V104.8q0,4.15.12,7.26c.08,2.06.18,3.85.29,5.34s.26,2.75.44,3.76.37,1.86.56,2.54v.2H526v-.2a9.39,9.39,0,0,0,.37-1.76c.08-.65.15-1.43.22-2.34a24.17,24.17,0,0,1-2.42,1.81,18.85,18.85,0,0,1-3.17,1.68,21.41,21.41,0,0,1-4,1.22,22.72,22.72,0,0,1-4.76.47q-8.49,0-13.13-4C496.08,118.14,494.53,114.38,494.53,109.49ZM526.9,95.28q-4.44.06-8.54.52a23.49,23.49,0,0,0-7.25,1.92,11.42,11.42,0,0,0-6.91,11.38q0,5.76,2.88,8.79a10.45,10.45,0,0,0,8,3,13.14,13.14,0,0,0,4.27-.66,14.68,14.68,0,0,0,3.42-1.66,12.34,12.34,0,0,0,2.51-2.2,10.26,10.26,0,0,0,1.56-2.32c.07-1.23.1-2.61.1-4.12V95.28Z"/><path class="cls-3" d="M550.44,70c0-2.77,0-5.18-.12-7.25s-.18-3.85-.3-5.35a37.82,37.82,0,0,0-.44-3.76,25.32,25.32,0,0,0-.56-2.54V50.9H560.3v.19a25.91,25.91,0,0,0-.54,2.54c-.16,1-.31,2.27-.44,3.76s-.22,3.28-.29,5.35-.1,4.48-.1,7.25V104.8c0,2.77,0,5.19.1,7.26s.16,3.85.29,5.34.28,2.75.44,3.76a25.29,25.29,0,0,0,.54,2.54v.2H549v-.2a24.7,24.7,0,0,0,.56-2.54,37.45,37.45,0,0,0,.44-3.76c.12-1.49.21-3.28.3-5.34s.12-4.49.12-7.26Z"/><path class="cls-3" d="M574.56,93q0-4.15-.12-7.25c-.09-2.07-.18-3.85-.3-5.35a37.45,37.45,0,0,0-.44-3.76,25.32,25.32,0,0,0-.56-2.54V73.9h11.28v.19a25.91,25.91,0,0,0-.54,2.54c-.16,1-.3,2.26-.43,3.76s-.23,3.28-.3,5.35-.1,4.48-.1,7.25V104.8c0,2.77,0,5.19.1,7.26s.16,3.85.3,5.34.27,2.75.43,3.76a25.29,25.29,0,0,0,.54,2.54v.2H573.14v-.2a24.7,24.7,0,0,0,.56-2.54,37.45,37.45,0,0,0,.44-3.76c.12-1.49.21-3.28.3-5.34s.12-4.49.12-7.26Zm-1-33.89a4.94,4.94,0,0,1,.42-2,5.29,5.29,0,0,1,1.1-1.66,5,5,0,0,1,1.63-1.13,5.29,5.29,0,0,1,2.08-.41,5.16,5.16,0,0,1,3.73,1.54,5.37,5.37,0,0,1,1.13,1.66,5.26,5.26,0,0,1-8.57,5.76,5.4,5.4,0,0,1-1.1-1.66A5.12,5.12,0,0,1,573.53,59.1Z"/><path class="cls-3" d="M616.06,121a8.23,8.23,0,0,0,2.91-.54,12.6,12.6,0,0,0,2.78-1.47,19.54,19.54,0,0,0,2.59-2.12,30.38,30.38,0,0,0,2.32-2.51l.49.24L624,122.48l-1.44.71a13.42,13.42,0,0,1-2,.78,21.26,21.26,0,0,1-2.81.63,23.26,23.26,0,0,1-3.8.27q-6.55,0-10.19-3.54t-3.63-11.06V77.71l-8.21.29V73.7c1,.07,2.22.12,3.62.15s2.93.05,4.59.05c0-2.31-.09-4.36-.17-6.13s-.18-3.32-.3-4.64-.25-2.43-.41-3.34-.33-1.68-.49-2.3V57.3H610v.19a17.19,17.19,0,0,0-.54,2.3c-.16.91-.3,2-.41,3.32s-.22,2.84-.3,4.61-.13,3.83-.17,6.18l6-.13c2,0,3.76-.11,5.37-.19s3-.16,4.11-.24,1.86-.16,2.22-.22l-.88,5L620.16,78c-1.56-.07-3.35-.11-5.37-.15l-6.25-.09V111.3a15.16,15.16,0,0,0,.66,4.91,8,8,0,0,0,1.71,3,5.43,5.43,0,0,0,2.39,1.47A9.9,9.9,0,0,0,616.06,121Z"/><path class="cls-3" d="M652.44,123.31l-17.19-37.6c-.62-1.43-1.28-2.8-2-4.12s-1.39-2.5-2-3.54-1.19-1.92-1.68-2.62-.81-1.14-1-1.34V73.9h12.8v.19a2.63,2.63,0,0,0-.15.73c0,.33-.05.62-.05.88a13.69,13.69,0,0,0,.46,3.35,27,27,0,0,0,1.74,4.56l13.47,29.3L669.14,84c.52-1.2,1.05-2.52,1.59-4a12.44,12.44,0,0,0,.8-4.35,4.45,4.45,0,0,0-.1-1,2.06,2.06,0,0,0-.19-.56V73.9H680v.19a17.83,17.83,0,0,0-2.22,3.3A57.76,57.76,0,0,0,675,83.32l-23.29,55.47c-.52,1.2-1,2.52-1.59,4a12.29,12.29,0,0,0-.8,4.35,5.13,5.13,0,0,0,.09,1,1.87,1.87,0,0,0,.2.56v.2h-9.13v-.2a16.82,16.82,0,0,0,2.27-3.25,57.23,57.23,0,0,0,2.85-5.83Z"/><path class="cls-3" d="M406.2,183.11l19.53,47.41,19-46.54a45.74,45.74,0,0,0,1.66-4.88,13.42,13.42,0,0,0,.54-3.42,7,7,0,0,0-.05-.9,3,3,0,0,0-.14-.71v-.19h9.66v.19a15.58,15.58,0,0,0-2.12,3.42c-.77,1.56-1.65,3.5-2.66,5.81l-26.07,62.11h-3.72l-19-46.09L385.5,245.41h-3.67l-23.92-59.72c-.59-1.4-1.18-2.75-1.78-4.05s-1.18-2.47-1.71-3.51-1-1.92-1.47-2.64a12.59,12.59,0,0,0-.95-1.42v-.19h13.53v.19a4.63,4.63,0,0,0-.1.83v.69a18.43,18.43,0,0,0,.36,3.51,26,26,0,0,0,1.44,4.49L385.59,230l17.53-46.68Z"/><path class="cls-3" d="M496,211q0-6.45-2.58-9.48a8.69,8.69,0,0,0-6.94-3,11.48,11.48,0,0,0-3.59.66,25.15,25.15,0,0,0-4.05,1.78,38.23,38.23,0,0,0-7.93,5.76V224.8q0,4.15.09,7.26c.07,2.06.17,3.85.3,5.34s.27,2.75.44,3.76a23,23,0,0,0,.53,2.54v.2H461v-.2a22.31,22.31,0,0,0,.56-2.54,37.45,37.45,0,0,0,.44-3.76c.12-1.49.22-3.28.3-5.34s.12-4.49.12-7.26V190c0-2.77,0-5.18-.12-7.25s-.18-3.85-.3-5.35a37.82,37.82,0,0,0-.44-3.76,22.81,22.81,0,0,0-.56-2.54v-.19h11.28v.19a23.52,23.52,0,0,0-.53,2.54c-.17,1-.31,2.27-.44,3.76s-.23,3.28-.3,5.35S471,187.22,471,190v12.5a51.5,51.5,0,0,1,4.32-3.47,43.14,43.14,0,0,1,4.9-3.07,29.82,29.82,0,0,1,5.18-2.2,17.29,17.29,0,0,1,5.18-.83,14.49,14.49,0,0,1,6.47,1.32,12.36,12.36,0,0,1,4.34,3.47,13.67,13.67,0,0,1,2.44,4.9,20.87,20.87,0,0,1,.76,5.59v16.6q0,4.15.1,7.26c.06,2.06.16,3.85.29,5.34s.28,2.75.44,3.76a20.71,20.71,0,0,0,.54,2.54v.2H494.63v-.2c.19-.68.38-1.53.56-2.54s.32-2.26.44-3.76.21-3.28.29-5.34.12-4.49.12-7.26Z"/><path class="cls-3" d="M519.53,213q0-4.16-.12-7.25c-.08-2.07-.18-3.85-.3-5.35a37.45,37.45,0,0,0-.44-3.76,22.81,22.81,0,0,0-.56-2.54v-.19h11.28v.19a23.52,23.52,0,0,0-.53,2.54c-.17,1-.31,2.26-.44,3.76s-.23,3.28-.3,5.35S528,210.22,528,213V224.8q0,4.15.09,7.26c.07,2.06.17,3.85.3,5.34s.27,2.75.44,3.76a23,23,0,0,0,.53,2.54v.2H518.11v-.2a22.31,22.31,0,0,0,.56-2.54,37.45,37.45,0,0,0,.44-3.76c.12-1.49.22-3.28.3-5.34s.12-4.49.12-7.26Zm-1-33.89a4.94,4.94,0,0,1,.42-2,5.46,5.46,0,0,1,1.1-1.66,5,5,0,0,1,1.63-1.13,5.29,5.29,0,0,1,2.08-.41,5.3,5.3,0,0,1,4.86,3.2,5.26,5.26,0,0,1-8.57,5.76,5.59,5.59,0,0,1-1.1-1.66A5.12,5.12,0,0,1,518.5,179.1Z"/><path class="cls-3" d="M561,241a8.23,8.23,0,0,0,2.91-.54,12.6,12.6,0,0,0,2.78-1.47,19.54,19.54,0,0,0,2.59-2.12,30.38,30.38,0,0,0,2.32-2.51l.49.24-3.18,7.86-1.44.71a13.42,13.42,0,0,1-2,.78,21.26,21.26,0,0,1-2.81.63,23.26,23.26,0,0,1-3.8.27q-6.55,0-10.18-3.54T545,230.27V197.71l-8.21.29v-4.3c1,.07,2.22.12,3.62.15s2.93.05,4.59.05c0-2.31-.09-4.36-.17-6.13s-.18-3.32-.3-4.64-.25-2.43-.41-3.34-.33-1.68-.49-2.3v-.19h11.28v.19a17.19,17.19,0,0,0-.54,2.3c-.16.91-.3,2-.41,3.32s-.21,2.84-.3,4.61-.13,3.83-.17,6.18l6-.13c2,0,3.76-.11,5.38-.19s3-.16,4.1-.24,1.86-.16,2.22-.22l-.88,5-5.23-.15c-1.56-.07-3.35-.11-5.37-.15l-6.25-.09V231.3a15.16,15.16,0,0,0,.66,4.91,8,8,0,0,0,1.71,2.95,5.43,5.43,0,0,0,2.39,1.47A9.9,9.9,0,0,0,561,241Z"/><path class="cls-3" d="M603.61,244.78a29.63,29.63,0,0,1-10.15-1.71,23.7,23.7,0,0,1-8.26-5,23.32,23.32,0,0,1-5.54-8.15,28.66,28.66,0,0,1-2-11.11,27.61,27.61,0,0,1,1.86-10.23,25.34,25.34,0,0,1,5.13-8.18,23.6,23.6,0,0,1,7.64-5.42,22.9,22.9,0,0,1,9.45-1.95,24.77,24.77,0,0,1,9.32,1.73,21.08,21.08,0,0,1,7.45,5,23.83,23.83,0,0,1,5,8.15,33.58,33.58,0,0,1,2,11.06q-5.52-.09-11-.14t-11.47,0q-4.24,0-8.28,0t-7.25.14a37.52,37.52,0,0,0,1.59,9.18,22,22,0,0,0,3.56,7,15.38,15.38,0,0,0,5.52,4.47,16.73,16.73,0,0,0,7.35,1.56,20.89,20.89,0,0,0,5.34-.66,18.82,18.82,0,0,0,4.57-1.83,17.86,17.86,0,0,0,6.4-6.2l.58.29-3.61,8.69a29.62,29.62,0,0,1-6.3,2.32A35,35,0,0,1,603.61,244.78ZM597.12,215l9.79,0q4.9,0,8.91-.17a31.94,31.94,0,0,0-1.66-7.62,19.56,19.56,0,0,0-3.13-5.71,13.21,13.21,0,0,0-4.49-3.62,12.86,12.86,0,0,0-5.71-1.27,11,11,0,0,0-5.2,1.25,12.21,12.21,0,0,0-4.13,3.59,19.17,19.17,0,0,0-2.83,5.73,30.1,30.1,0,0,0-1.27,7.74c1.47.07,3,.1,4.64.1Z"/><path class="cls-3" d="M711.08,183.11l19.53,47.41,19-46.54a48.11,48.11,0,0,0,1.66-4.88,13.81,13.81,0,0,0,.53-3.42c0-.29,0-.59,0-.9a3.56,3.56,0,0,0-.15-.71v-.19h9.67v.19a15.55,15.55,0,0,0-2.13,3.42q-1.14,2.34-2.66,5.81l-26.07,62.11h-3.71l-19-46.09-17.33,46.09h-3.66l-23.93-59.72c-.58-1.4-1.18-2.75-1.78-4.05s-1.17-2.47-1.71-3.51-1-1.92-1.47-2.64a11.32,11.32,0,0,0-1-1.42v-.19h13.53v.19a4.63,4.63,0,0,0-.1.83v.69a17.69,17.69,0,0,0,.37,3.51,24.4,24.4,0,0,0,1.44,4.49L690.48,230,708,183.3Z"/><path class="cls-3" d="M766.65,213q0-4.16-.12-7.25c-.09-2.07-.18-3.85-.3-5.35a37.45,37.45,0,0,0-.44-3.76,25.32,25.32,0,0,0-.56-2.54v-.19h11.28v.19a25.91,25.91,0,0,0-.54,2.54c-.16,1-.3,2.26-.43,3.76s-.23,3.28-.3,5.35-.1,4.48-.1,7.25V224.8c0,2.77,0,5.19.1,7.26s.16,3.85.3,5.34.27,2.75.43,3.76a25.29,25.29,0,0,0,.54,2.54v.2H765.23v-.2a24.7,24.7,0,0,0,.56-2.54,37.45,37.45,0,0,0,.44-3.76c.12-1.49.21-3.28.3-5.34s.12-4.49.12-7.26Zm-1-33.89a4.94,4.94,0,0,1,.42-2,5.29,5.29,0,0,1,1.1-1.66,5,5,0,0,1,1.63-1.13,5.29,5.29,0,0,1,2.08-.41,5.16,5.16,0,0,1,3.73,1.54,5.37,5.37,0,0,1,1.13,1.66,5.26,5.26,0,0,1-8.57,5.76,5.4,5.4,0,0,1-1.1-1.66A5.12,5.12,0,0,1,765.62,179.1Z"/><path class="cls-3" d="M824.07,211q0-6.45-2.59-9.48a8.66,8.66,0,0,0-6.93-3,11.14,11.14,0,0,0-3.52.66,26.76,26.76,0,0,0-4,1.75,37.43,37.43,0,0,0-4.1,2.57,39.52,39.52,0,0,0-3.86,3.12L799,213V224.8q0,4.15.1,7.26c.06,2.06.16,3.85.29,5.34s.28,2.75.44,3.76a20.71,20.71,0,0,0,.54,2.54v.2H789.06v-.2a24.7,24.7,0,0,0,.56-2.54,37.45,37.45,0,0,0,.44-3.76c.11-1.49.21-3.28.29-5.34s.13-4.49.13-7.26V213q0-4.16-.13-7.25c-.08-2.07-.18-3.85-.29-5.35a37.45,37.45,0,0,0-.44-3.76,25.32,25.32,0,0,0-.56-2.54v-.19h11.28v.19a17.3,17.3,0,0,0-.61,3.1c-.15,1.26-.3,2.89-.46,4.91,1.33-1.11,2.77-2.21,4.32-3.32a38.52,38.52,0,0,1,4.81-2.95,29.84,29.84,0,0,1,5.07-2.1,17,17,0,0,1,5.08-.81,14.43,14.43,0,0,1,6.47,1.32,12.31,12.31,0,0,1,4.35,3.47,13.84,13.84,0,0,1,2.44,4.9,21.28,21.28,0,0,1,.76,5.59v16.6q0,4.15.09,7.26c.07,2.06.17,3.85.3,5.34s.27,2.75.44,3.76a23,23,0,0,0,.53,2.54v.2H822.65v-.2a24.42,24.42,0,0,0,.57-2.54c.17-1,.32-2.26.44-3.76s.21-3.28.29-5.34.12-4.49.12-7.26Z"/><path class="cls-3" d="M869.14,244.78A29.73,29.73,0,0,1,859,243.07a23.57,23.57,0,0,1-8.25-5,23.32,23.32,0,0,1-5.54-8.15,28.66,28.66,0,0,1-2-11.11A27.61,27.61,0,0,1,845,208.57a25.15,25.15,0,0,1,5.12-8.18,23.75,23.75,0,0,1,7.65-5.42,22.89,22.89,0,0,1,9.44-1.95,24.78,24.78,0,0,1,9.33,1.73,21.17,21.17,0,0,1,7.45,5,23.83,23.83,0,0,1,5,8.15A33.33,33.33,0,0,1,891,219q-5.51-.09-11-.14t-11.47,0q-4.26,0-8.28,0c-2.69,0-5.1.08-7.25.14a37.53,37.53,0,0,0,1.58,9.18,22.24,22.24,0,0,0,3.57,7,15.29,15.29,0,0,0,5.52,4.47,16.73,16.73,0,0,0,7.35,1.56,21,21,0,0,0,5.34-.66,18.82,18.82,0,0,0,4.57-1.83,17.73,17.73,0,0,0,6.39-6.2l.59.29-3.61,8.69a29.62,29.62,0,0,1-6.3,2.32A35,35,0,0,1,869.14,244.78ZM862.64,215l9.79,0q4.92,0,8.92-.17a32.43,32.43,0,0,0-1.66-7.62,19.56,19.56,0,0,0-3.13-5.71,13.31,13.31,0,0,0-4.49-3.62,12.89,12.89,0,0,0-5.71-1.27,11,11,0,0,0-5.2,1.25,12.21,12.21,0,0,0-4.13,3.59,18.93,18.93,0,0,0-2.83,5.73,30.1,30.1,0,0,0-1.27,7.74c1.46.07,3,.1,4.64.1Z"/></g></g></g></svg>