<svg xmlns="http://www.w3.org/2000/svg" viewBox="0 0 959.67 304.76"><defs><style>.cls-1{fill:#d6b35a;}.cls-2{fill:#fff;}.cls-3{fill:#1d1d1b;}</style></defs><g id="Camada_2" data-name="Camada 2"><g id="Camada_1-2" data-name="Camada 1"><g id="logo_horiz_p_amarelo" data-name="logo horiz p amarelo"><g id="logo_IA" data-name="logo IA"><rect class="cls-1" width="320" height="304.76" rx="40"/><g id="ia_back" data-name="ia back"><path class="cls-2" d="M145.74,90.13c-2.41-11.22-7-21.79-11.82-32.17-2.66-5.64-7.38-8.45-13.61-9.07-8.18-.8-16.33-.38-24.51-.64H73.73c-8.07,0-13.56,3.85-16,11.48C54.48,69.84,52,80.24,48.46,90.22c-6.26,17.66-.1,31.43,12.53,43.4,15.75,14.94,41.66,18.84,59.14,9.09C140.59,131.28,150.4,111.65,145.74,90.13Zm-31.35,49c-19.43,9.08-43.58,1.56-56-17.38-3.54-5.41-5.93-11.35-5.72-17.69.48-13.79,4.46-26.86,10.18-39.32,2.17-4.75,6.66-7,11.83-7.87,7.59-1.31,15.23-1.2,22.87-1.23,30.61,0,31.64.77,40.51,30C145.85,111.16,138.49,127.8,114.39,139.1Z"/><path class="cls-2" d="M132.38,110.36C129.84,125.51,115,136,101.55,137.41c-16.28,1.67-30.69-5-37.33-18-1.23-2.4-3-4.94-1.46-7.66,1.64-2.9,4.77-2.13,7.39-1.88a38.55,38.55,0,0,1,8,1.42C104.75,119.69,107.39,119.69,132.38,110.36Z"/><path class="cls-2" d="M103.38,162.46v81.23q0,4.73,1.26,7.08a9.71,9.71,0,0,0,2.86,3.49,5.8,5.8,0,0,0,3.88,1.35v.9l-5.71-.45c-1.53-.15-3.09-.26-4.69-.34s-2.86-.11-3.77-.11-2.17,0-3.77.11-3.24.19-4.92.34-3.8.3-5.94.45v-.9a7.7,7.7,0,0,0,4.12-1.12,11.09,11.09,0,0,0,2.62-3.6,15.66,15.66,0,0,0,1.26-7V162.24c0-3.16-.42-5.52-1.26-7.1a11.46,11.46,0,0,0-2.62-3.48,6.76,6.76,0,0,0-4.12-1.35v-.67c2.14.15,4.12.29,5.94.45s3.32.25,4.92.33,2.86.12,3.77.12,2.17,0,3.77-.12,3.16-.18,4.69-.33c1.83-.16,3.73-.3,5.71-.45v.67a5.8,5.8,0,0,0-3.88,1.35,9.58,9.58,0,0,0-2.86,3.6A16.3,16.3,0,0,0,103.38,162.46Z"/><path class="cls-2" d="M259.15,241.66a29.57,29.57,0,0,0,4.8,7.65,22.44,22.44,0,0,0,4.8,4.05,14.2,14.2,0,0,0,5.26,2v1.12l-3.2-.22c-.91-.15-2-.26-3.2-.34s-2.51-.19-3.88-.34c-1.83-.15-3.63-.26-5.38-.34s-3.16-.11-4.22-.11-2.4,0-4,.11-3.24.19-4.92.34c-1.22.15-2.48.27-3.77.34s-2.4.19-3.31.34a23.09,23.09,0,0,0-3.21.22v-1.12a13.64,13.64,0,0,0,6.86-2,8.21,8.21,0,0,0,3.43-4.39q1.14-3-1.37-8.43-2.29-5.4-4.23-10L235,219.72q-2.62-6.18-5.6-13.39H159L145.1,239.41q-2.29,5.18-.35,8.21a14.33,14.33,0,0,0,5.15,4.84,28.23,28.23,0,0,0,9.14,2.93v1.12q-3.66-.22-7.09-.67l-6.06-.45c-2-.15-3.84-.23-5.37-.23h-1.37c-.61,0-1.33,0-2.17.11s-1.79.12-2.86.12q-2.28.23-4.68.33c-1.6.08-3.17.19-4.69.34l-4.8.45v-1.12a24.17,24.17,0,0,0,7.32-2.7,31.31,31.31,0,0,0,6.28-5.29,30.94,30.94,0,0,0,5.83-9.56q3.44-7.65,7.66-17.55T156,199.47q4.68-10.9,9.49-22.27t9.37-22.06q4.58-10.68,8.46-19.91t6.85-16l5.72-13.05h5.49q11.88,27.9,22.85,53.55l9.49,22.39q4.91,11.58,9.6,22.38t8.8,20.37Q256.18,234.47,259.15,241.66Zm-32-40.5q-5.25-12.82-11.08-26.55t-10.86-25.2q-5.49-13.28-11-26.1L161.1,201.16Z"/></g></g><path class="cls-3" d="M392.92,56.93A41.67,41.67,0,0,1,408,59.59a35.66,35.66,0,0,1,11.94,7.47,34.12,34.12,0,0,1,7.86,11.55,38,38,0,0,1,2.83,14.89,38.65,38.65,0,0,1-1.51,10.77,37.62,37.62,0,0,1-4.39,9.77,34.9,34.9,0,0,1-7.06,8,32.68,32.68,0,0,1-9.45,5.5c1,1.82,2,3.68,3.05,5.59a58.63,58.63,0,0,0,3.57,5.61,42.66,42.66,0,0,0,4.51,5.3,34.32,34.32,0,0,0,5.86,4.64,41.55,41.55,0,0,0,7.62,3.71,48.67,48.67,0,0,0,9.81,2.44,2.75,2.75,0,0,1-.14.34c-.07.13-.13.27-.2.42s-.13.32-.19.51A54.3,54.3,0,0,1,420.24,151a51.9,51.9,0,0,1-8.33-4.91,66.13,66.13,0,0,1-6.76-5.59,62.12,62.12,0,0,1-5.3-5.66q-2.3-2.81-4-5.15A42.54,42.54,0,0,1,380.71,127a35.33,35.33,0,0,1-12-7.39,33.68,33.68,0,0,1-7.88-11.5A38,38,0,0,1,358,93.21a39,39,0,0,1,1.07-9.13,38.52,38.52,0,0,1,3.15-8.54,35.54,35.54,0,0,1,5.08-7.45,32.68,32.68,0,0,1,6.88-5.88,33.31,33.31,0,0,1,8.6-3.89A35.84,35.84,0,0,1,392.92,56.93Zm2.78,68.31a24.62,24.62,0,0,0,9.91-1.95,21.55,21.55,0,0,0,7.74-5.66,26.53,26.53,0,0,0,5.06-9.06,38,38,0,0,0,1.8-12.14,53.6,53.6,0,0,0-1.73-13.94,33.77,33.77,0,0,0-5.15-11.13A24.25,24.25,0,0,0,404.81,64a25.3,25.3,0,0,0-11.89-2.66A24.91,24.91,0,0,0,383,63.25a21.51,21.51,0,0,0-7.74,5.6,25.87,25.87,0,0,0-5.06,9,37.74,37.74,0,0,0-1.8,12.11,54.38,54.38,0,0,0,1.71,13.94,33.47,33.47,0,0,0,5.12,11.21,24.57,24.57,0,0,0,8.55,7.44A25.09,25.09,0,0,0,395.7,125.24Z"/><path class="cls-3" d="M450.34,111q0,6.45,2.56,9.48a8.62,8.62,0,0,0,6.91,3,11.14,11.14,0,0,0,3.52-.66,28,28,0,0,0,4-1.75,40,40,0,0,0,4.15-2.57,33.77,33.77,0,0,0,3.83-3.12c.06-1,.1-2,.1-3V97.21q0-4.14-.12-7.25c-.09-2.06-.18-3.84-.3-5.34a37.45,37.45,0,0,0-.44-3.76,24.7,24.7,0,0,0-.56-2.54v-.2H485.3v.2a25.29,25.29,0,0,0-.54,2.54c-.16,1-.31,2.26-.44,3.76S484.1,87.9,484,90s-.1,4.49-.1,7.25V109c0,2.77,0,5.19.1,7.25s.16,3.85.29,5.35.28,2.75.44,3.76a25.91,25.91,0,0,0,.54,2.54v.19H474v-.19c.2-.82.4-1.86.61-3.13a45.06,45.06,0,0,0,.47-5c-1.34,1.14-2.78,2.27-4.33,3.37a39.93,39.93,0,0,1-4.83,3,30.25,30.25,0,0,1-5.08,2.12,16.69,16.69,0,0,1-5.05.81,14.43,14.43,0,0,1-6.47-1.32,12.39,12.39,0,0,1-4.35-3.47,13.91,13.91,0,0,1-2.44-4.88,21.09,21.09,0,0,1-.76-5.61V97.21q0-4.14-.09-7.25t-.3-5.34c-.13-1.5-.27-2.75-.44-3.76a23,23,0,0,0-.53-2.54v-.2h11.28v.2a20.71,20.71,0,0,0-.54,2.54c-.16,1-.31,2.26-.44,3.76s-.23,3.28-.29,5.34-.1,4.49-.1,7.25Z"/><path class="cls-3" d="M495,113.72A13.56,13.56,0,0,1,496.6,107a15.51,15.51,0,0,1,4.23-4.83,23,23,0,0,1,6-3.25,45.11,45.11,0,0,1,7-2A59.5,59.5,0,0,1,521,96q3.51-.27,6.44-.32V93.21a16.84,16.84,0,0,0-.83-5.57,10.36,10.36,0,0,0-2.34-3.88,9.48,9.48,0,0,0-3.64-2.29,13.68,13.68,0,0,0-4.66-.76,21,21,0,0,0-3.47.29,20.5,20.5,0,0,0-3.54,1,25.4,25.4,0,0,0-3.86,1.86,40.49,40.49,0,0,0-4.37,3l-.49-.29,3.32-6.88a25,25,0,0,1,3.18-1.2,31.1,31.1,0,0,1,3.17-.76,32,32,0,0,1,3.3-.41q1.68-.12,3.54-.12a27.16,27.16,0,0,1,8.76,1.24,16.27,16.27,0,0,1,6,3.42,13.1,13.1,0,0,1,3.39,5.08,17.72,17.72,0,0,1,1.08,6.22V109q0,4.16.12,7.25c.08,2.07.18,3.85.29,5.35s.26,2.75.44,3.76.37,1.85.56,2.54v.19H526.51v-.19a10.26,10.26,0,0,0,.37-1.76c.08-.65.15-1.43.22-2.34a27.22,27.22,0,0,1-2.42,1.8,20.05,20.05,0,0,1-3.17,1.69,22.19,22.19,0,0,1-4,1.22,22.75,22.75,0,0,1-4.76.46q-8.49,0-13.13-4T495,113.72Zm32.37-14.21a83.23,83.23,0,0,0-8.54.51,23.27,23.27,0,0,0-7.26,1.93,11.44,11.44,0,0,0-6.9,11.38q0,5.76,2.88,8.79a10.45,10.45,0,0,0,8,3,13.42,13.42,0,0,0,4.27-.65,15.09,15.09,0,0,0,3.42-1.66,12.34,12.34,0,0,0,2.51-2.2,11,11,0,0,0,1.56-2.32c.07-1.24.1-2.61.1-4.13V99.51Z"/><path class="cls-3" d="M550.93,74.22c0-2.77,0-5.19-.13-7.25s-.18-3.85-.29-5.35a37.45,37.45,0,0,0-.44-3.76,24.7,24.7,0,0,0-.56-2.54v-.19h11.28v.19a20.71,20.71,0,0,0-.54,2.54c-.16,1-.31,2.26-.44,3.76s-.23,3.28-.29,5.35-.1,4.48-.1,7.25V109q0,4.16.1,7.25c.06,2.07.16,3.85.29,5.35s.28,2.75.44,3.76a21.13,21.13,0,0,0,.54,2.54v.19H549.51v-.19a25.32,25.32,0,0,0,.56-2.54,37.45,37.45,0,0,0,.44-3.76c.11-1.5.21-3.28.29-5.35s.13-4.48.13-7.25Z"/><path class="cls-3" d="M575.05,97.21q0-4.14-.13-7.25c-.08-2.06-.17-3.84-.29-5.34a37.45,37.45,0,0,0-.44-3.76,24.7,24.7,0,0,0-.56-2.54v-.2h11.28v.2a22.77,22.77,0,0,0-.54,2.54c-.16,1-.31,2.26-.44,3.76s-.22,3.28-.29,5.34-.1,4.49-.1,7.25V109c0,2.77,0,5.19.1,7.25s.16,3.85.29,5.35.28,2.75.44,3.76a23.28,23.28,0,0,0,.54,2.54v.19H573.63v-.19a25.32,25.32,0,0,0,.56-2.54,37.45,37.45,0,0,0,.44-3.76c.12-1.5.21-3.28.29-5.35s.13-4.48.13-7.25Zm-1-33.88a5,5,0,0,1,.42-2,5.4,5.4,0,0,1,1.1-1.66,5.26,5.26,0,0,1,5.78-1.12A5.34,5.34,0,0,1,583,59.64a5.28,5.28,0,0,1,1.12,1.66,5,5,0,0,1,.42,2,5.16,5.16,0,0,1-5.27,5.27,5.29,5.29,0,0,1-2.08-.41,5,5,0,0,1-1.63-1.13,5.29,5.29,0,0,1-1.1-1.66A5,5,0,0,1,574,63.33Z"/><path class="cls-3" d="M621.14,77.24a23.5,23.5,0,0,1,4,.35,25.68,25.68,0,0,1,3.91,1,22.89,22.89,0,0,1,3.61,1.57,17.16,17.16,0,0,1,3.08,2.09v-8q0-4.16-.1-7.25c-.06-2.07-.16-3.85-.29-5.35s-.28-2.75-.44-3.76a20.71,20.71,0,0,0-.54-2.54v-.19h11.28v.19c-.19.68-.38,1.53-.56,2.54a37.45,37.45,0,0,0-.44,3.76c-.11,1.5-.21,3.28-.29,5.35s-.12,4.48-.12,7.25V109q0,4.16.12,7.25c.08,2.07.18,3.85.29,5.35a37.45,37.45,0,0,0,.44,3.76c.18,1,.37,1.85.56,2.54v.19H634.86v-.19a5.49,5.49,0,0,0,.25-1.15c.06-.5.14-1.13.24-1.88a29.38,29.38,0,0,1-6.25,2.83,27.24,27.24,0,0,1-8.74,1.27,29.53,29.53,0,0,1-10.55-1.8,22.13,22.13,0,0,1-13.23-13.36A30.45,30.45,0,0,1,594.77,103a26.3,26.3,0,0,1,2-10.23,24.44,24.44,0,0,1,5.47-8.18,25.11,25.11,0,0,1,8.34-5.42A28.12,28.12,0,0,1,621.14,77.24Zm14.6,13.58a15.34,15.34,0,0,0-5.59-7.57A14.34,14.34,0,0,0,622,80.81a18.19,18.19,0,0,0-7,1.34A15.32,15.32,0,0,0,609.42,86a18.27,18.27,0,0,0-3.59,6.23,25.28,25.28,0,0,0-1.29,8.37,39.28,39.28,0,0,0,1.17,9.82,25.17,25.17,0,0,0,3.44,7.88,16.65,16.65,0,0,0,5.64,5.23,15.73,15.73,0,0,0,7.77,1.88,16.37,16.37,0,0,0,4.29-.54,19.14,19.14,0,0,0,3.67-1.37,17,17,0,0,0,2.93-1.83,13.85,13.85,0,0,0,2.09-2c.07-1.39.12-3,.15-4.78s0-3.76,0-5.91Z"/><path class="cls-3" d="M655.37,113.72A13.46,13.46,0,0,1,657,107a15.35,15.35,0,0,1,4.22-4.83,23,23,0,0,1,6-3.25,44.68,44.68,0,0,1,7-2,59.78,59.78,0,0,1,7.13-1q3.51-.27,6.44-.32V93.21a16.84,16.84,0,0,0-.83-5.57,10.36,10.36,0,0,0-2.34-3.88,9.48,9.48,0,0,0-3.64-2.29,13.68,13.68,0,0,0-4.66-.76,21.1,21.1,0,0,0-3.47.29,20.5,20.5,0,0,0-3.54,1,25.4,25.4,0,0,0-3.86,1.86,41.49,41.49,0,0,0-4.37,3l-.49-.29,3.33-6.88a24.3,24.3,0,0,1,3.17-1.2,31.1,31.1,0,0,1,3.17-.76,32.33,32.33,0,0,1,3.3-.41q1.68-.12,3.54-.12a27.16,27.16,0,0,1,8.76,1.24,16.27,16.27,0,0,1,6,3.42,13,13,0,0,1,3.39,5.08,17.72,17.72,0,0,1,1.08,6.22V109q0,4.16.12,7.25c.08,2.07.18,3.85.29,5.35s.26,2.75.44,3.76.37,1.85.56,2.54v.19H686.86v-.19a9.39,9.39,0,0,0,.37-1.76c.08-.65.15-1.43.22-2.34a25.83,25.83,0,0,1-2.42,1.8,19.62,19.62,0,0,1-3.17,1.69,22.19,22.19,0,0,1-4,1.22,22.75,22.75,0,0,1-4.76.46q-8.49,0-13.13-4T655.37,113.72Zm32.37-14.21a83.23,83.23,0,0,0-8.54.51A23.21,23.21,0,0,0,672,102,11.42,11.42,0,0,0,665,113.33q0,5.76,2.88,8.79a10.45,10.45,0,0,0,8,3,13.42,13.42,0,0,0,4.27-.65,15.09,15.09,0,0,0,3.42-1.66,12.34,12.34,0,0,0,2.51-2.2,10.26,10.26,0,0,0,1.56-2.32c.07-1.24.1-2.61.1-4.13V99.51Z"/><path class="cls-3" d="M733.25,77.24a23.5,23.5,0,0,1,4,.35,25.68,25.68,0,0,1,3.91,1,22.89,22.89,0,0,1,3.61,1.57,17.16,17.16,0,0,1,3.08,2.09v-8q0-4.16-.1-7.25c-.06-2.07-.16-3.85-.29-5.35s-.28-2.75-.44-3.76a20.71,20.71,0,0,0-.54-2.54v-.19h11.28v.19c-.19.68-.38,1.53-.56,2.54a37.45,37.45,0,0,0-.44,3.76c-.11,1.5-.21,3.28-.29,5.35s-.12,4.48-.12,7.25V109q0,4.16.12,7.25c.08,2.07.18,3.85.29,5.35a37.45,37.45,0,0,0,.44,3.76c.18,1,.37,1.85.56,2.54v.19H747v-.19a5,5,0,0,0,.24-1.15c.07-.5.15-1.13.25-1.88a29.61,29.61,0,0,1-6.25,2.83,27.24,27.24,0,0,1-8.74,1.27,29.49,29.49,0,0,1-10.55-1.8,22.13,22.13,0,0,1-13.23-13.36A30.45,30.45,0,0,1,706.88,103a26.3,26.3,0,0,1,2-10.23,24.57,24.57,0,0,1,5.46-8.18,25.25,25.25,0,0,1,8.35-5.42A28.12,28.12,0,0,1,733.25,77.24Zm14.6,13.58a15.34,15.34,0,0,0-5.59-7.57,14.34,14.34,0,0,0-8.18-2.44,18.19,18.19,0,0,0-7,1.34A15.32,15.32,0,0,0,721.53,86a18.11,18.11,0,0,0-3.59,6.23,25.28,25.28,0,0,0-1.29,8.37,39.28,39.28,0,0,0,1.17,9.82,25.17,25.17,0,0,0,3.44,7.88,16.65,16.65,0,0,0,5.64,5.23,15.73,15.73,0,0,0,7.77,1.88,16.37,16.37,0,0,0,4.29-.54,18.79,18.79,0,0,0,3.66-1.37,16.27,16.27,0,0,0,2.93-1.83,13.49,13.49,0,0,0,2.1-2c.07-1.39.12-3,.15-4.78s.05-3.76.05-5.91Z"/><path class="cls-3" d="M793.26,129a29.73,29.73,0,0,1-10.16-1.71,23.73,23.73,0,0,1-8.25-5,23.36,23.36,0,0,1-5.54-8.16,28.61,28.61,0,0,1-2-11.1,27.61,27.61,0,0,1,1.86-10.23,25,25,0,0,1,5.13-8.18,23.6,23.6,0,0,1,7.64-5.42,22.91,22.91,0,0,1,9.45-2A24.58,24.58,0,0,1,800.68,79a21,21,0,0,1,7.45,5,23.64,23.64,0,0,1,5,8.15,33.58,33.58,0,0,1,2,11.06q-5.52-.09-11-.15t-11.47,0c-2.84,0-5.59,0-8.28,0s-5.1.09-7.25.15a37,37,0,0,0,1.59,9.18,22.13,22.13,0,0,0,3.56,7,15.5,15.5,0,0,0,5.52,4.47,16.73,16.73,0,0,0,7.35,1.56,21,21,0,0,0,5.34-.66A18.82,18.82,0,0,0,805,123a17.4,17.4,0,0,0,3.66-2.76,17.72,17.72,0,0,0,2.73-3.44l.59.29-3.61,8.69a30.17,30.17,0,0,1-6.3,2.32A35.54,35.54,0,0,1,793.26,129Zm-6.49-29.78,9.79,0q4.91,0,8.91-.17a32.66,32.66,0,0,0-1.66-7.62,19.69,19.69,0,0,0-3.13-5.71,13.28,13.28,0,0,0-4.49-3.61,12.76,12.76,0,0,0-5.71-1.27,11,11,0,0,0-5.2,1.24,12.32,12.32,0,0,0-4.13,3.59,19.11,19.11,0,0,0-2.83,5.74,30,30,0,0,0-1.27,7.74c1.46.06,3,.1,4.64.1Z"/><path class="cls-3" d="M877.83,77.24a23.5,23.5,0,0,1,4,.35,25.68,25.68,0,0,1,3.91,1,22.89,22.89,0,0,1,3.61,1.57,17.16,17.16,0,0,1,3.08,2.09v-8q0-4.16-.1-7.25c-.06-2.07-.16-3.85-.29-5.35s-.28-2.75-.44-3.76a20.71,20.71,0,0,0-.54-2.54v-.19h11.28v.19c-.19.68-.38,1.53-.56,2.54a37.45,37.45,0,0,0-.44,3.76c-.11,1.5-.21,3.28-.29,5.35s-.12,4.48-.12,7.25V109q0,4.16.12,7.25c.08,2.07.18,3.85.29,5.35a37.45,37.45,0,0,0,.44,3.76c.18,1,.37,1.85.56,2.54v.19H891.55v-.19a5,5,0,0,0,.24-1.15c.07-.5.15-1.13.25-1.88a29.61,29.61,0,0,1-6.25,2.83,27.24,27.24,0,0,1-8.74,1.27,29.49,29.49,0,0,1-10.55-1.8,22.13,22.13,0,0,1-13.23-13.36A30.45,30.45,0,0,1,851.46,103a26.3,26.3,0,0,1,2-10.23,24.57,24.57,0,0,1,5.46-8.18,25.25,25.25,0,0,1,8.35-5.42A28.12,28.12,0,0,1,877.83,77.24Zm14.6,13.58a15.34,15.34,0,0,0-5.59-7.57,14.34,14.34,0,0,0-8.18-2.44,18.19,18.19,0,0,0-7,1.34A15.32,15.32,0,0,0,866.11,86a18.11,18.11,0,0,0-3.59,6.23,25.28,25.28,0,0,0-1.29,8.37,39.28,39.28,0,0,0,1.17,9.82,25.17,25.17,0,0,0,3.44,7.88,16.65,16.65,0,0,0,5.64,5.23,15.73,15.73,0,0,0,7.77,1.88,16.37,16.37,0,0,0,4.29-.54,19.14,19.14,0,0,0,3.67-1.37,16.54,16.54,0,0,0,2.92-1.83,13.49,13.49,0,0,0,2.1-2c.07-1.39.12-3,.15-4.78s0-3.76,0-5.91Z"/><path class="cls-3" d="M937.84,129a29.73,29.73,0,0,1-10.16-1.71,23.73,23.73,0,0,1-8.25-5,23.36,23.36,0,0,1-5.54-8.16,28.61,28.61,0,0,1-2-11.1,27.61,27.61,0,0,1,1.86-10.23,25.17,25.17,0,0,1,5.13-8.18,23.6,23.6,0,0,1,7.64-5.42,22.91,22.91,0,0,1,9.45-2A24.58,24.58,0,0,1,945.26,79a21,21,0,0,1,7.45,5,23.64,23.64,0,0,1,5,8.15,33.58,33.58,0,0,1,2,11.06q-5.52-.09-11-.15t-11.47,0c-2.84,0-5.59,0-8.28,0s-5.1.09-7.25.15a37,37,0,0,0,1.59,9.18,22.13,22.13,0,0,0,3.56,7,15.5,15.5,0,0,0,5.52,4.47,16.73,16.73,0,0,0,7.35,1.56,21,21,0,0,0,5.34-.66,18.82,18.82,0,0,0,4.57-1.83,17.4,17.4,0,0,0,3.66-2.76,18.16,18.16,0,0,0,2.74-3.44l.58.29-3.61,8.69a30.17,30.17,0,0,1-6.3,2.32A35.54,35.54,0,0,1,937.84,129Zm-6.49-29.78,9.79,0q4.9,0,8.91-.17a32.66,32.66,0,0,0-1.66-7.62,19.69,19.69,0,0,0-3.13-5.71,13.28,13.28,0,0,0-4.49-3.61,12.76,12.76,0,0,0-5.71-1.27,11,11,0,0,0-5.2,1.24,12.32,12.32,0,0,0-4.13,3.59,19.11,19.11,0,0,0-2.83,5.74,30,30,0,0,0-1.27,7.74c1.46.06,3,.1,4.64.1Z"/><path class="cls-3" d="M365.38,178.1v.2a2.55,2.55,0,0,0-.15.73c0,.33-.05.62-.05.88a15,15,0,0,0,.42,3.34,26,26,0,0,0,1.59,4.57l21.63,48.78,20.89-48.39c.49-1.2,1-2.52,1.57-4a12.08,12.08,0,0,0,.83-4.35,4.75,4.75,0,0,0-.1-1,2.87,2.87,0,0,0-.2-.61v-.2h10v.2a16,16,0,0,0-2.24,3.32q-1.32,2.38-2.88,5.91l-28,62.11h-3.91L358.3,189.92c-.62-1.4-1.26-2.75-1.93-4s-1.29-2.48-1.88-3.54-1.11-2-1.56-2.66-.77-1.18-.93-1.37v-.2Z"/><path class="cls-3" d="M425.63,217.21q0-4.14-.12-7.25c-.08-2.06-.18-3.84-.29-5.34s-.26-2.75-.44-3.76-.37-1.86-.56-2.54v-.2H435.5v.2a20.71,20.71,0,0,0-.54,2.54c-.16,1-.31,2.26-.44,3.76s-.23,3.28-.29,5.34-.1,4.49-.1,7.25V229q0,4.16.1,7.25c.06,2.07.16,3.85.29,5.35s.28,2.75.44,3.76a21.13,21.13,0,0,0,.54,2.54v.19H424.22v-.19c.19-.69.38-1.53.56-2.54s.32-2.26.44-3.76.21-3.28.29-5.35.12-4.48.12-7.25Zm-1-33.88a5.15,5.15,0,0,1,.41-2,5.79,5.79,0,0,1,1.1-1.66,5.13,5.13,0,0,1,1.64-1.12,5,5,0,0,1,2.07-.42,5.12,5.12,0,0,1,2.08.42,5.58,5.58,0,0,1,1.66,1.12,5.46,5.46,0,0,1,1.12,1.66,5,5,0,0,1,.42,2,5.18,5.18,0,0,1-5.28,5.27,5.2,5.2,0,0,1-2.07-.41,5,5,0,0,1-1.64-1.13,5.65,5.65,0,0,1-1.1-1.66A5.2,5.2,0,0,1,424.61,183.33Z"/><path class="cls-3" d="M483.05,215.21q0-6.44-2.58-9.47a8.67,8.67,0,0,0-6.94-3,11.08,11.08,0,0,0-3.51.66,26.5,26.5,0,0,0-4,1.76,39.3,39.3,0,0,0-4.1,2.56,40.84,40.84,0,0,0-3.86,3.13l-.09,6.39V229q0,4.16.09,7.25c.07,2.07.17,3.85.3,5.35s.27,2.75.44,3.76a23.52,23.52,0,0,0,.53,2.54v.19H448v-.19a25,25,0,0,0,.57-2.54c.18-1,.32-2.26.44-3.76s.21-3.28.29-5.35.12-4.48.12-7.25V217.21q0-4.14-.12-7.25c-.08-2.06-.18-3.84-.29-5.34s-.26-2.75-.44-3.76a24.42,24.42,0,0,0-.57-2.54v-.2h11.28v.2a17.12,17.12,0,0,0-.61,3.1c-.14,1.25-.3,2.89-.46,4.91q2-1.67,4.32-3.32a40.62,40.62,0,0,1,4.81-3,31.29,31.29,0,0,1,5.08-2.1,17.23,17.23,0,0,1,5.08-.8,14.6,14.6,0,0,1,6.47,1.31,12.47,12.47,0,0,1,4.34,3.47,13.56,13.56,0,0,1,2.44,4.91,20.81,20.81,0,0,1,.76,5.59V229q0,4.16.1,7.25c.06,2.07.16,3.85.29,5.35s.28,2.75.44,3.76a21.13,21.13,0,0,0,.54,2.54v.19H481.64v-.19c.19-.69.38-1.53.56-2.54a37.45,37.45,0,0,0,.44-3.76c.11-1.5.21-3.28.29-5.35s.12-4.48.12-7.25Z"/><path class="cls-3" d="M539.84,215.21q0-6.44-2.59-9.47a8.64,8.64,0,0,0-6.93-3,11.48,11.48,0,0,0-3.59.66,26.07,26.07,0,0,0-4.05,1.78,36,36,0,0,0-4.13,2.62,39.35,39.35,0,0,0-3.81,3.15V229c0,2.77,0,5.19.1,7.25s.16,3.85.29,5.35.28,2.75.44,3.76a25.91,25.91,0,0,0,.54,2.54v.19H504.83v-.19a25.32,25.32,0,0,0,.56-2.54,37.45,37.45,0,0,0,.44-3.76c.12-1.5.21-3.28.3-5.35s.12-4.48.12-7.25V194.22q0-4.16-.12-7.25c-.09-2.07-.18-3.85-.3-5.35a37.45,37.45,0,0,0-.44-3.76,24.7,24.7,0,0,0-.56-2.54v-.19h11.28v.19a25.29,25.29,0,0,0-.54,2.54c-.16,1-.31,2.26-.44,3.76s-.22,3.28-.29,5.35-.1,4.48-.1,7.25v12.5a53.38,53.38,0,0,1,4.33-3.47,44.69,44.69,0,0,1,4.9-3.08,29.77,29.77,0,0,1,5.18-2.19,17,17,0,0,1,5.17-.83,14.57,14.57,0,0,1,6.47,1.31,12.42,12.42,0,0,1,4.35,3.47,13.72,13.72,0,0,1,2.44,4.91,21.22,21.22,0,0,1,.76,5.59V229q0,4.16.1,7.25c.06,2.07.16,3.85.29,5.35s.27,2.75.44,3.76a21.13,21.13,0,0,0,.54,2.54v.19H538.43v-.19c.19-.69.38-1.53.56-2.54s.32-2.26.44-3.76.21-3.28.29-5.35.12-4.48.12-7.25Z"/><path class="cls-3" d="M558.93,223a25.27,25.27,0,0,1,7.69-18.41,25.93,25.93,0,0,1,8.48-5.42,28,28,0,0,1,10.49-2A29,29,0,0,1,596,199.08a25.34,25.34,0,0,1,8.47,5.2,23.89,23.89,0,0,1,5.69,8.2,28.39,28.39,0,0,1,.32,20.51,24,24,0,0,1-5.18,8.2,25.21,25.21,0,0,1-8.37,5.69A28.87,28.87,0,0,1,585.5,249a29.34,29.34,0,0,1-10.31-1.8,25.1,25.1,0,0,1-8.44-5.18,24.36,24.36,0,0,1-5.72-8.18A26.76,26.76,0,0,1,558.93,223Zm27.69,22.41a14.8,14.8,0,0,0,6.37-1.37,14.16,14.16,0,0,0,5-3.95,19,19,0,0,0,3.27-6.3,28,28,0,0,0,1.17-8.4,40.91,40.91,0,0,0-1.12-9.79,24.36,24.36,0,0,0-3.35-7.81,15.94,15.94,0,0,0-5.59-5.16,16.13,16.13,0,0,0-7.86-1.85,14.93,14.93,0,0,0-6.35,1.34,14.43,14.43,0,0,0-5,3.88,18.13,18.13,0,0,0-3.3,6.23,27.66,27.66,0,0,0-1.17,8.37,39.77,39.77,0,0,0,1.15,9.82,24.88,24.88,0,0,0,3.39,7.88,16.41,16.41,0,0,0,5.59,5.23A15.68,15.68,0,0,0,586.62,245.44Z"/><path class="cls-3" d="M654,197.24q0-4.14-.1-7.25c-.06-2.06-.16-3.85-.29-5.37s-.28-2.77-.46-3.78-.37-1.86-.56-2.54v-.2c.65,0,1.33.05,2,.05s1.31,0,2.07,0h2.37a43.83,43.83,0,0,0,4.76-.34,70.45,70.45,0,0,1,7.74-.34,27.22,27.22,0,0,1,8.11,1.15,19.48,19.48,0,0,1,6.42,3.29,15.14,15.14,0,0,1,4.24,5.3,16,16,0,0,1,1.54,7.15,18.18,18.18,0,0,1-.93,6,14,14,0,0,1-2.61,4.64,14.76,14.76,0,0,1-4.05,3.32,23,23,0,0,1-5.2,2.13,30.35,30.35,0,0,1,7.57,2.12,21.25,21.25,0,0,1,5.88,3.73,15.74,15.74,0,0,1,3.81,5.25,16.28,16.28,0,0,1,1.34,6.67q0,10.3-6.78,15.45T670.6,248.9c-1,0-2.11,0-3.41-.12l-4-.27-4-.26c-1.31-.09-2.44-.13-3.42-.13h-3.22v-.19c.19-.69.38-1.53.56-2.54s.33-2.26.46-3.76.23-3.28.29-5.35.1-4.48.1-7.25Zm8.89,12.6c.91.1,1.72.16,2.44.17s1.48,0,2.29,0a18.43,18.43,0,0,0,6.06-.95,12.31,12.31,0,0,0,4.66-2.86,13.06,13.06,0,0,0,3-4.76,19.08,19.08,0,0,0,1.07-6.67,20,20,0,0,0-.78-5.76,12.42,12.42,0,0,0-2.32-4.42,10.35,10.35,0,0,0-3.78-2.81,12.79,12.79,0,0,0-5.13-1c-1.24,0-2.32,0-3.25.14s-1.72.22-2.37.35a11.13,11.13,0,0,0-1.9.48Zm9,3.66a53.27,53.27,0,0,0-5.56.25c-1.5.16-2.66.32-3.47.49V229q0,5.72.19,9.43t.54,6c1.24.16,2.47.31,3.71.44a29.71,29.71,0,0,0,3,.19q9.13,0,13.36-4.07t4.22-12.53a17.91,17.91,0,0,0-1-6.08,13.11,13.11,0,0,0-3-4.76,13.48,13.48,0,0,0-5-3.1A20.43,20.43,0,0,0,671.92,213.5Z"/><path class="cls-3" d="M709.23,217.21q0-4.14-.13-7.25c-.08-2.06-.18-3.84-.29-5.34a37.45,37.45,0,0,0-.44-3.76,24.7,24.7,0,0,0-.56-2.54v-.2h11.28v.2a17.12,17.12,0,0,0-.66,2.73,38.35,38.35,0,0,0-.41,4.15q1.8-1.51,3.76-3a33.93,33.93,0,0,1,4-2.58,24.48,24.48,0,0,1,4.17-1.81,14.07,14.07,0,0,1,4.28-.68,19,19,0,0,1,2.29.12,11.46,11.46,0,0,1,1.76.34,13,13,0,0,1,1.42.49l1.22.51-2.4,9.33-.83-.2a6.46,6.46,0,0,0-2.19-3.44,6.86,6.86,0,0,0-4.4-1.29,10.47,10.47,0,0,0-3.17.53,19.3,19.3,0,0,0-3.37,1.49,34.51,34.51,0,0,0-3.42,2.2c-1.14.83-2.25,1.7-3.32,2.61-.07.95-.1,2-.1,3.08V229q0,4.16.1,7.25c.06,2.07.16,3.85.29,5.35s.28,2.75.44,3.76a21.13,21.13,0,0,0,.54,2.54v.19H707.81v-.19a25.32,25.32,0,0,0,.56-2.54,37.45,37.45,0,0,0,.44-3.76c.11-1.5.21-3.28.29-5.35s.13-4.48.13-7.25Z"/><path class="cls-3" d="M742.53,233.72a13.56,13.56,0,0,1,1.58-6.69,15.51,15.51,0,0,1,4.23-4.83,23,23,0,0,1,6-3.25,45.11,45.11,0,0,1,7-1.95,59.5,59.5,0,0,1,7.13-1q3.51-.27,6.44-.32v-2.49a16.84,16.84,0,0,0-.83-5.57,10.36,10.36,0,0,0-2.34-3.88,9.56,9.56,0,0,0-3.64-2.29,13.68,13.68,0,0,0-4.66-.76A21,21,0,0,0,760,201a20.5,20.5,0,0,0-3.54,1,25.4,25.4,0,0,0-3.86,1.86,40.49,40.49,0,0,0-4.37,3l-.49-.29,3.32-6.88a25,25,0,0,1,3.18-1.2,31.1,31.1,0,0,1,3.17-.76,32,32,0,0,1,3.3-.41q1.68-.12,3.54-.12a27.2,27.2,0,0,1,8.76,1.24,16.27,16.27,0,0,1,6,3.42,13.1,13.1,0,0,1,3.39,5.08,17.72,17.72,0,0,1,1.08,6.22V229q0,4.16.12,7.25c.08,2.07.18,3.85.29,5.35a37.45,37.45,0,0,0,.44,3.76c.18,1,.37,1.85.56,2.54v.19H774v-.19a10.26,10.26,0,0,0,.37-1.76c.08-.65.15-1.43.22-2.34a27.22,27.22,0,0,1-2.42,1.8,20.05,20.05,0,0,1-3.17,1.69,22.19,22.19,0,0,1-4,1.22,22.75,22.75,0,0,1-4.76.46q-8.49,0-13.13-4T742.53,233.72Zm32.37-14.21a83.23,83.23,0,0,0-8.54.51A23.27,23.27,0,0,0,759.1,222a11.44,11.44,0,0,0-6.9,11.38q0,5.76,2.88,8.79a10.45,10.45,0,0,0,8,3,13.42,13.42,0,0,0,4.27-.65,15.09,15.09,0,0,0,3.42-1.66,12.34,12.34,0,0,0,2.51-2.2,11,11,0,0,0,1.56-2.32c.07-1.24.1-2.61.1-4.13V219.51Z"/><path class="cls-3" d="M831.74,215.21q0-6.44-2.59-9.47a8.67,8.67,0,0,0-6.94-3,11.08,11.08,0,0,0-3.51.66,26.41,26.41,0,0,0-4,1.76,38.39,38.39,0,0,0-4.11,2.56,40.7,40.7,0,0,0-3.85,3.13l-.1,6.39V229q0,4.16.1,7.25c.06,2.07.16,3.85.29,5.35s.28,2.75.44,3.76a21.13,21.13,0,0,0,.54,2.54v.19H796.73v-.19c.19-.69.38-1.53.56-2.54s.32-2.26.44-3.76.21-3.28.29-5.35.12-4.48.12-7.25V217.21q0-4.14-.12-7.25c-.08-2.06-.18-3.84-.29-5.34s-.26-2.75-.44-3.76-.37-1.86-.56-2.54v-.2H808v.2a16.3,16.3,0,0,0-.61,3.1c-.15,1.25-.31,2.89-.47,4.91q2-1.67,4.32-3.32a40.62,40.62,0,0,1,4.81-3,31.67,31.67,0,0,1,5.08-2.1,17.28,17.28,0,0,1,5.08-.8,14.6,14.6,0,0,1,6.47,1.31,12.47,12.47,0,0,1,4.34,3.47,13.74,13.74,0,0,1,2.45,4.91,21.21,21.21,0,0,1,.75,5.59V229q0,4.16.1,7.25c.06,2.07.16,3.85.29,5.35s.28,2.75.44,3.76a21.13,21.13,0,0,0,.54,2.54v.19H830.32v-.19a25.32,25.32,0,0,0,.56-2.54,37.45,37.45,0,0,0,.44-3.76c.11-1.5.21-3.28.29-5.35s.13-4.48.13-7.25Z"/><path class="cls-3" d="M895.51,237.72l-3.62,8.69a24.34,24.34,0,0,1-3,1.08c-1.14.32-2.32.6-3.54.83s-2.46.4-3.69.51-2.41.17-3.52.17a33.28,33.28,0,0,1-10.91-1.73,24.47,24.47,0,0,1-8.64-5.06,23,23,0,0,1-5.69-8.15,28,28,0,0,1-2-11,24.56,24.56,0,0,1,8-18.41,27.49,27.49,0,0,1,8.91-5.42,31.07,31.07,0,0,1,11.13-2,39.86,39.86,0,0,1,5.86.47,41.14,41.14,0,0,1,5.57,1.19l3.47,8.31-.59.34a15.59,15.59,0,0,0-2.9-2.76,19,19,0,0,0-3.72-2.13,22.88,22.88,0,0,0-4.27-1.36,21.3,21.3,0,0,0-4.59-.49,17.44,17.44,0,0,0-6.93,1.34,14.94,14.94,0,0,0-5.37,3.88,17.94,17.94,0,0,0-3.49,6.23,26.11,26.11,0,0,0-1.25,8.37,38.35,38.35,0,0,0,1.2,9.82,24,24,0,0,0,3.56,7.88,16.83,16.83,0,0,0,6,5.23,17.94,17.94,0,0,0,8.42,1.88,18.37,18.37,0,0,0,4.47-.56,19,19,0,0,0,4.2-1.62,18.27,18.27,0,0,0,3.64-2.51,14.44,14.44,0,0,0,2.78-3.32Z"/><path class="cls-3" d="M901.32,223a25.3,25.3,0,0,1,2-10.23,25,25,0,0,1,5.64-8.18,25.78,25.78,0,0,1,8.47-5.42,28,28,0,0,1,10.5-2,29,29,0,0,1,10.37,1.84,25.24,25.24,0,0,1,8.47,5.2,23.89,23.89,0,0,1,5.69,8.2,28.39,28.39,0,0,1,.32,20.51,24,24,0,0,1-5.18,8.2,25.21,25.21,0,0,1-8.37,5.69,28.8,28.8,0,0,1-11.4,2.12,29.24,29.24,0,0,1-10.3-1.8,25.14,25.14,0,0,1-8.45-5.18,24.33,24.33,0,0,1-5.71-8.18A26.76,26.76,0,0,1,901.32,223ZM929,245.44a14.77,14.77,0,0,0,6.37-1.37,14.16,14.16,0,0,0,5-3.95,19,19,0,0,0,3.27-6.3,28,28,0,0,0,1.17-8.4,40.41,40.41,0,0,0-1.12-9.79,24.36,24.36,0,0,0-3.35-7.81,15.42,15.42,0,0,0-13.45-7,14.93,14.93,0,0,0-6.35,1.34,14.52,14.52,0,0,0-5,3.88,18.3,18.3,0,0,0-3.3,6.23,27.66,27.66,0,0,0-1.17,8.37,39.77,39.77,0,0,0,1.15,9.82,24.88,24.88,0,0,0,3.39,7.88,16.41,16.41,0,0,0,5.59,5.23A15.68,15.68,0,0,0,929,245.44Z"/></g></g></g></svg>