<svg width="150" height="143" viewBox="0 0 150 143" fill="none" xmlns="http://www.w3.org/2000/svg">
<path d="M131.25 0H18.75C8.39466 0 0 8.39466 0 18.75V124.106C0 134.462 8.39466 142.856 18.75 142.856H131.25C141.605 142.856 150 134.462 150 124.106V18.75C150 8.39466 141.605 0 131.25 0Z" fill="#D6B35A"/>
<path d="M68.3156 42.2484C67.1859 36.9891 65.0344 32.0344 62.775 27.1687C61.5281 24.525 59.3156 23.2078 56.3953 22.9172C52.5609 22.5422 48.7406 22.7391 44.9063 22.6172H34.5609C30.7781 22.6172 28.2047 24.4219 27.0609 27.9984C25.5375 32.7375 24.375 37.6125 22.7156 42.2906C19.7813 50.5688 22.6688 57.0234 28.5891 62.6344C35.9719 69.6375 48.1172 71.4656 56.3109 66.8953C65.9016 61.5375 70.5 52.3359 68.3156 42.2484ZM53.6203 65.2172C44.5125 69.4734 33.1922 65.9484 27.3703 57.0703C25.7109 54.5344 24.5906 51.75 24.6891 48.7781C24.9141 42.3141 26.7797 36.1875 29.4609 30.3469C30.4781 28.1203 32.5828 27.0656 35.0063 26.6578C38.5641 26.0437 42.1453 26.0953 45.7266 26.0812C60.075 26.0812 60.5578 26.4422 64.7156 40.1438C68.3672 52.1063 64.9172 59.9063 53.6203 65.2031V65.2172Z" fill="white"/>
<path d="M62.0534 51.7313C60.8628 58.8328 53.9065 63.75 47.6018 64.411C39.9706 65.1938 33.2159 62.0672 30.1034 55.9735C29.5268 54.8485 28.6971 53.6578 29.419 52.3828C30.1878 51.0234 31.655 51.3844 32.8831 51.5016C34.153 51.5907 35.41 51.8138 36.6331 52.1672C49.1018 56.1047 50.3393 56.1047 62.0534 51.7313Z" fill="white"/>
<path d="M48.4596 76.1531V114.23C48.4596 115.708 48.6565 116.814 49.0502 117.548C49.3624 118.191 49.8217 118.752 50.3908 119.184C50.8996 119.61 51.5464 119.835 52.2096 119.817V120.239L49.533 120.028C48.8158 119.958 48.0846 119.906 47.3346 119.869C46.5846 119.831 45.994 119.817 45.5674 119.817C45.1408 119.817 44.5502 119.817 43.8002 119.869C43.0502 119.92 42.2815 119.958 41.494 120.028C40.7065 120.098 39.7127 120.169 38.7096 120.239V119.817C39.39 119.828 40.0594 119.646 40.6408 119.292C41.1601 118.819 41.5779 118.244 41.869 117.605C42.3149 116.571 42.517 115.448 42.4596 114.323V76.05C42.4596 74.5688 42.2627 73.4625 41.869 72.7219C41.5677 72.1046 41.1507 71.5509 40.6408 71.0906C40.084 70.6734 39.4054 70.451 38.7096 70.4578V70.1438C39.7127 70.2141 40.6408 70.2797 41.494 70.3547C42.3471 70.4297 43.0502 70.4719 43.8002 70.5094C44.5502 70.5469 45.1408 70.5656 45.5674 70.5656C45.994 70.5656 46.5846 70.5656 47.3346 70.5094C48.0846 70.4531 48.8158 70.425 49.533 70.3547C50.3908 70.2797 51.2815 70.2141 52.2096 70.1438V70.4578C51.5464 70.4398 50.8996 70.6649 50.3908 71.0906C49.8136 71.536 49.3535 72.1151 49.0502 72.7781C48.6004 73.8439 48.3984 74.9979 48.4596 76.1531Z" fill="white"/>
<path d="M121.477 113.278C122.039 114.582 122.798 115.791 123.727 116.864C124.384 117.599 125.142 118.238 125.977 118.762C126.728 119.236 127.566 119.555 128.442 119.7V120.225L126.942 120.122C126.516 120.052 126.005 120 125.442 119.962C124.88 119.925 124.266 119.873 123.624 119.803C122.766 119.733 121.922 119.681 121.102 119.644C120.281 119.606 119.621 119.592 119.124 119.592C118.627 119.592 117.999 119.592 117.249 119.644C116.499 119.695 115.73 119.733 114.942 119.803C114.371 119.873 113.78 119.93 113.175 119.962C112.571 119.995 112.05 120.052 111.624 120.122C111.12 120.121 110.618 120.156 110.119 120.225V119.7C111.255 119.679 112.365 119.355 113.335 118.762C114.094 118.285 114.663 117.557 114.942 116.705C115.299 115.767 115.085 114.45 114.3 112.753C113.585 111.066 112.924 109.503 112.317 108.066L110.156 102.994C109.338 101.062 108.463 98.9703 107.531 96.7172H74.5315L68.0159 112.223C67.3002 113.842 67.2456 115.125 67.8518 116.072C68.4545 117.018 69.2844 117.798 70.2659 118.341C71.6051 119.04 73.0542 119.504 74.5502 119.714V120.239C73.4065 120.17 72.2987 120.066 71.2268 119.925L68.3862 119.714C67.4487 119.644 66.5862 119.606 65.869 119.606H65.2268C64.9409 119.606 64.6034 119.606 64.2096 119.658C63.8159 119.709 63.3706 119.714 62.869 119.714C62.1565 119.786 61.4252 119.837 60.6752 119.869C59.9252 119.906 59.1893 119.958 58.4768 120.028L56.2268 120.239V119.714C57.4315 119.481 58.5904 119.053 59.6581 118.448C60.7439 117.755 61.7337 116.921 62.6018 115.969C63.7777 114.654 64.7038 113.135 65.3346 111.487C66.4096 109.097 67.6065 106.355 68.9252 103.261C70.244 100.167 71.644 96.9141 73.1252 93.5016C74.5877 90.0953 76.0706 86.6156 77.5737 83.0625C79.0768 79.5094 80.5409 76.0625 81.9659 72.7219C83.3971 69.3844 84.719 66.2734 85.9315 63.3891C87.144 60.5047 88.2143 58.0047 89.1424 55.8891L91.8237 49.7719H94.3971C98.1096 58.4906 101.68 66.8578 105.108 74.8734L109.556 85.3687C111.091 88.9875 112.591 92.4844 114.056 95.8594C115.522 99.2344 116.897 102.417 118.181 105.408C119.45 108.408 120.549 111.031 121.477 113.278ZM106.477 94.2937C104.836 90.2875 103.105 86.1391 101.283 81.8484C99.4612 77.5578 97.7643 73.6203 96.1924 70.0359C94.4768 65.8859 92.7581 61.8078 91.0362 57.8016L75.5159 94.2937H106.477Z" fill="white"/>
</svg>
